<svg width="102" height="20" viewBox="0 0 102 20" fill="none" xmlns="http://www.w3.org/2000/svg">
<mask id="mask0" mask-type="alpha" maskUnits="userSpaceOnUse" x="0" y="0" width="102" height="20">
<rect width="102" height="20" rx="3" fill="#C4C4C4"/>
</mask>
<g mask="url(#mask0)">
<rect width="70" height="19.9789" transform="translate(0 0.0105438)" fill="url(#paint0_linear)"/>
<path d="M12.5686 15.0492C10.746 15.2822 8.87963 14.2816 7.86199 12.7941C7.27421 11.931 6.99513 10.9183 7.00006 9.87656C7.00445 8.8962 7.25173 7.47062 7.99139 6.74797C9.11705 5.64753 9.28592 8.22508 9.36214 8.84466C9.48896 9.84547 9.61693 10.8461 9.74595 11.8466C9.94717 13.4082 10.7005 15.3058 12.5686 15.0492Z" fill="#FBB03B"/>
<path d="M16.4005 15.8179C14.828 16.3618 12.9539 15.5618 12.149 14.1351C11.6309 13.1946 11.5195 12.0832 11.8409 11.0586C12.1567 10.0958 12.7181 10.4741 12.9923 11.1869C13.5614 12.6481 14.1547 16.6469 16.4005 15.8179Z" fill="#1B4964"/>
<path d="M11.2219 4.86699C13.0406 4.63451 14.907 5.61761 15.9269 7.10405C16.5179 7.96598 16.791 8.97594 16.7877 10.0166C16.7844 10.9487 16.5311 12.6073 15.7257 13.2286C14.5923 14.1025 14.4881 11.5546 14.413 10.9663C14.2853 9.96508 14.1603 8.96388 14.0292 7.96324C13.8263 6.40826 13.0538 4.61532 11.2219 4.86699Z" fill="#E6302B"/>
<path d="M7.27417 4.18186C8.81434 3.64946 10.6457 4.40666 11.4714 5.7796C11.9892 6.66346 12.1424 7.71427 11.8985 8.70916C11.6595 9.66211 11.0876 9.79534 10.7087 8.88626C10.0957 7.41847 9.571 3.35721 7.27417 4.18186Z" fill="#8CC63F"/>
<path d="M23.0394 12.9171V9.62732C23.0394 9.11559 22.9319 8.74456 22.717 8.51427C22.5021 8.28399 22.1692 8.16813 21.7185 8.16665C21.1117 8.16665 20.6675 8.31979 20.3856 8.62613C20.1038 8.93246 19.9631 9.42955 19.9634 10.1175V12.9171H19.5012V5.65544H19.9634V7.96543L19.9399 8.61406H19.9728C20.1423 8.32769 20.3923 8.09735 20.6916 7.95172C20.9811 7.81464 21.3404 7.74611 21.7695 7.74611C22.921 7.74611 23.4967 8.36366 23.4967 9.59881V12.9171H23.0394Z" fill="#444444"/>
<path d="M29.3333 10.3736C29.3333 11.2015 29.1323 11.8479 28.7302 12.3129C28.3281 12.7778 27.7741 13.0105 27.0683 13.0109C26.6533 13.0192 26.2449 12.9072 25.8922 12.6885C25.5451 12.4659 25.2731 12.1439 25.1114 11.7646C24.9287 11.3625 24.8384 10.8988 24.8406 10.3736C24.8406 9.54601 25.0416 8.90121 25.4437 8.43916C25.8458 7.97711 26.3965 7.74611 27.0957 7.74611C27.7924 7.74611 28.3393 7.98023 28.7362 8.44848C29.1332 8.91673 29.3322 9.5584 29.3333 10.3736ZM25.3307 10.3736C25.3307 11.071 25.4841 11.6147 25.7908 12.0047C26.0974 12.3948 26.5306 12.591 27.0902 12.5936C27.6506 12.5936 28.0839 12.3983 28.3902 12.0075C28.6966 11.6167 28.8497 11.073 28.8497 10.3763C28.8497 9.67628 28.6949 9.13347 28.3853 8.74785C28.0757 8.36223 27.6409 8.1683 27.0809 8.1661C26.5209 8.1661 26.0892 8.35817 25.7858 8.74237C25.4825 9.12656 25.3307 9.67025 25.3307 10.3736Z" fill="#444444"/>
<path d="M33.8842 11.5968C33.8842 12.0508 33.7115 12.4001 33.3661 12.6446C33.0206 12.8892 32.5306 13.0113 31.8961 13.0109C31.2177 13.0109 30.6794 12.9065 30.2813 12.6978V12.1988C30.7819 12.4521 31.3351 12.5836 31.8961 12.5827C32.3965 12.5827 32.7768 12.4993 33.0371 12.3326C33.2974 12.1659 33.4273 11.9443 33.4269 11.6675C33.4292 11.4161 33.3145 11.1779 33.1166 11.0227C32.9093 10.8484 32.5694 10.6772 32.0968 10.509C31.5897 10.3262 31.2336 10.1683 31.0281 10.0353C30.842 9.92225 30.6833 9.76922 30.5637 9.5873C30.4544 9.4034 30.3999 9.19197 30.4069 8.97814C30.3984 8.61494 30.5798 8.27357 30.8856 8.07728C31.204 7.85796 31.6497 7.7483 32.2229 7.7483C32.7578 7.74583 33.2879 7.85061 33.7817 8.05644L33.6101 8.47425C33.1122 8.2688 32.6502 8.1661 32.224 8.1661C31.8098 8.1661 31.4808 8.23464 31.237 8.37172C30.9932 8.50879 30.8719 8.6985 30.8729 8.94085C30.8635 9.18605 30.969 9.42165 31.1581 9.57797C31.346 9.7366 31.7139 9.91392 32.2618 10.1098C32.7191 10.2747 33.0519 10.4233 33.2602 10.5556C33.4488 10.6684 33.6093 10.8224 33.7296 11.0063C33.8357 11.1847 33.8893 11.3893 33.8842 11.5968Z" fill="#444444"/>
<path d="M36.5319 12.6002C36.7898 12.604 37.0473 12.5788 37.2996 12.5251V12.8985C37.049 12.9774 36.7875 13.0153 36.5248 13.0109C36.077 13.0109 35.7464 12.891 35.5329 12.6512C35.3195 12.4114 35.2129 12.0349 35.2133 11.5217V8.24561H34.4599V7.97475L35.2111 7.76475L35.4447 6.61716H35.6826V7.84425H37.174V8.24561H35.6826V11.4564C35.6826 11.8457 35.7512 12.1336 35.8882 12.32C36.0253 12.5064 36.2399 12.5998 36.5319 12.6002Z" fill="#444444"/>
<path d="M38.3293 6.43457C38.3293 6.13559 38.4273 5.98623 38.6232 5.98661C38.7138 5.98365 38.7995 6.02785 38.8496 6.1034C38.9094 6.20232 38.9379 6.31702 38.9313 6.43238C38.937 6.54769 38.9086 6.66212 38.8496 6.76136C38.8009 6.83906 38.7148 6.88528 38.6232 6.88308C38.4269 6.88308 38.3289 6.73214 38.3293 6.43019V6.43457ZM38.8562 12.9171H38.3945V7.84425H38.8562V12.9171Z" fill="#444444"/>
<path d="M44.093 12.9171V9.62732C44.093 9.11559 43.9857 8.74456 43.7711 8.51427C43.5566 8.28399 43.2236 8.16791 42.7721 8.1661C42.1657 8.1661 41.7216 8.31924 41.4398 8.62558C41.1579 8.93191 41.017 9.429 41.017 10.117V12.9171H40.5554V7.84425H40.9474L41.0357 8.5395H41.0669C41.3959 8.01022 41.9808 7.74572 42.8215 7.74611C43.9725 7.74611 44.5481 8.36366 44.5481 9.59881V12.9171H44.093Z" fill="#444444"/>
<path d="M50.1511 7.84425V8.1661L49.1012 8.23135C49.3709 8.55326 49.5195 8.95949 49.5212 9.37949C49.5212 9.86819 49.3585 10.2643 49.0332 10.5677C48.7079 10.871 48.2714 11.0226 47.7238 11.0222C47.5616 11.0266 47.3992 11.0173 47.2386 10.9942C47.0746 11.0747 46.9309 11.1912 46.8186 11.3353C46.7264 11.4542 46.6756 11.5999 46.6738 11.7503C46.664 11.8938 46.7351 12.0307 46.8581 12.1051C46.9809 12.1782 47.187 12.2147 47.4765 12.2147H48.3637C48.9142 12.2147 49.3357 12.3259 49.6281 12.5481C49.9205 12.7703 50.0667 13.0993 50.0667 13.5351C50.0667 14.0702 49.8498 14.4832 49.4159 14.7742C48.982 15.0652 48.3635 15.2114 47.5604 15.2128C46.9226 15.2128 46.4291 15.09 46.08 14.8444C45.7309 14.5988 45.5559 14.2564 45.5548 13.8174C45.5444 13.4967 45.6611 13.1847 45.8794 12.9495C46.0954 12.7192 46.3878 12.562 46.7566 12.4779C46.6125 12.4188 46.4863 12.3232 46.3904 12.2005C46.2992 12.0821 46.2508 11.9364 46.2527 11.7871C46.2527 11.4482 46.4689 11.1496 46.9014 10.8912C46.6163 10.7785 46.3744 10.5783 46.2105 10.3193C46.0432 10.0517 45.9573 9.74115 45.9632 9.42555C45.9632 8.91854 46.1243 8.5117 46.4463 8.20503C46.7683 7.89837 47.2031 7.74517 47.7507 7.74556C48.0837 7.74556 48.3419 7.77829 48.5254 7.8437L50.1511 7.84425ZM46.0438 13.7763C46.0438 14.473 46.562 14.8214 47.5983 14.8214C48.9295 14.8214 49.5953 14.3968 49.5957 13.5477C49.5957 13.2424 49.4915 13.0215 49.2832 12.8848C49.0748 12.7481 48.7371 12.6795 48.2699 12.6792H47.4393C46.5086 12.6792 46.0435 13.0447 46.0438 13.7758V13.7763ZM46.4315 9.4261C46.4315 9.81797 46.5505 10.1221 46.7884 10.3385C47.0264 10.5549 47.3446 10.6631 47.743 10.6631C48.1659 10.6631 48.4902 10.5558 48.7157 10.3412C48.9412 10.1267 49.0542 9.81594 49.0546 9.4091C49.0546 8.97704 48.9385 8.65261 48.7064 8.43587C48.4743 8.21912 48.15 8.11111 47.7337 8.11182C47.3291 8.11182 47.0109 8.22768 46.7791 8.45944C46.5473 8.69121 46.4315 9.01394 46.4315 9.42774V9.4261Z" fill="#444444"/>
<path d="M51.1008 12.553C51.1008 12.2482 51.2253 12.0958 51.4742 12.0958C51.7301 12.0958 51.858 12.2482 51.858 12.553C51.858 12.8579 51.7301 13.0105 51.4742 13.0109C51.2253 13.0109 51.1008 12.8583 51.1008 12.553Z" fill="#444444"/>
<path d="M55.3227 7.74611C55.6515 7.73777 55.9776 7.80653 56.2751 7.94678C56.5427 8.08057 56.7823 8.30921 56.9939 8.63271H57.0224C57.0038 8.24051 56.9945 7.8567 56.9945 7.48128V5.65544H57.4518V12.9171H57.1485L57.0318 12.1424H56.9945C56.6085 12.7214 56.0545 13.0109 55.3326 13.0109C54.6329 13.0109 54.0978 12.793 53.7272 12.3573C53.3565 11.9216 53.171 11.2876 53.1706 10.4553C53.1706 9.57797 53.3534 8.9074 53.7189 8.44354C54.0845 7.97968 54.6191 7.7472 55.3227 7.74611ZM55.3227 8.1661C54.7689 8.1661 54.3528 8.36059 54.0742 8.74949C53.7957 9.1384 53.6564 9.70315 53.6564 10.4437C53.6564 11.8814 54.215 12.6002 55.332 12.6002C55.9045 12.6002 56.3248 12.4337 56.5931 12.1007C56.8614 11.7677 56.9952 11.2194 56.9945 10.4558V10.3763C56.9945 9.59223 56.8629 9.02841 56.5997 8.6848C56.3365 8.34118 55.9109 8.1683 55.3227 8.1661Z" fill="#444444"/>
<path d="M61.2032 13.0109C60.4656 13.0109 59.8906 12.7837 59.4783 12.3293C59.0659 11.875 58.86 11.2386 58.8603 10.4202C58.8603 9.61159 59.0594 8.96372 59.4574 8.47644C59.8555 7.98917 60.3923 7.74572 61.0678 7.74611C61.6654 7.74611 62.1368 7.95462 62.4819 8.37172C62.8269 8.78881 62.9996 9.35537 63 10.0714V10.4448H59.3456C59.3518 11.1416 59.5145 11.6736 59.8336 12.0409C60.1527 12.4083 60.6096 12.591 61.2043 12.5892C61.46 12.5922 61.7155 12.572 61.9675 12.5289C62.2527 12.468 62.5316 12.3804 62.8004 12.2674V12.6874C62.5464 12.8018 62.2802 12.8871 62.007 12.9418C61.7418 12.9894 61.4727 13.0126 61.2032 13.0109ZM61.0678 8.15678C60.5791 8.15678 60.1871 8.31782 59.8917 8.63983C59.5963 8.96185 59.4236 9.42626 59.3735 10.0331H62.5098C62.5098 9.44457 62.3819 8.98488 62.126 8.65409C61.8701 8.3233 61.517 8.1575 61.0667 8.15678H61.0678Z" fill="#444444"/>
<path d="M23.0394 12.9171V9.62732C23.0394 9.11559 22.9319 8.74456 22.717 8.51427C22.5021 8.28399 22.1692 8.16813 21.7185 8.16665C21.1117 8.16665 20.6675 8.31979 20.3856 8.62613C20.1038 8.93246 19.9631 9.42955 19.9634 10.1175V12.9171H19.5012V5.65544H19.9634V7.96543L19.9399 8.61406H19.9728C20.1423 8.32769 20.3923 8.09735 20.6916 7.95172C20.9811 7.81464 21.3404 7.74611 21.7695 7.74611C22.921 7.74611 23.4967 8.36366 23.4967 9.59881V12.9171H23.0394Z" stroke="#444444" stroke-width="0.3" stroke-linejoin="round"/>
<path d="M29.3333 10.3736C29.3333 11.2015 29.1323 11.8479 28.7302 12.3129C28.3281 12.7778 27.7741 13.0105 27.0683 13.0109C26.6533 13.0192 26.2449 12.9072 25.8922 12.6885C25.5451 12.4659 25.2731 12.1439 25.1114 11.7646C24.9287 11.3625 24.8384 10.8988 24.8406 10.3736C24.8406 9.54601 25.0416 8.90121 25.4437 8.43916C25.8458 7.97711 26.3965 7.74611 27.0957 7.74611C27.7924 7.74611 28.3393 7.98023 28.7362 8.44848C29.1332 8.91673 29.3322 9.5584 29.3333 10.3736ZM25.3307 10.3736C25.3307 11.071 25.4841 11.6147 25.7908 12.0047C26.0974 12.3948 26.5306 12.591 27.0902 12.5936C27.6506 12.5936 28.0839 12.3983 28.3902 12.0075C28.6966 11.6167 28.8497 11.073 28.8497 10.3763C28.8497 9.67628 28.6949 9.13347 28.3853 8.74785C28.0757 8.36223 27.6409 8.1683 27.0809 8.1661C26.5209 8.1661 26.0892 8.35817 25.7858 8.74237C25.4825 9.12656 25.3307 9.67025 25.3307 10.3736Z" stroke="#444444" stroke-width="0.3" stroke-linejoin="round"/>
<path d="M33.8842 11.5968C33.8842 12.0508 33.7115 12.4001 33.3661 12.6446C33.0206 12.8892 32.5306 13.0113 31.8961 13.0109C31.2177 13.0109 30.6794 12.9065 30.2813 12.6978V12.1988C30.7819 12.4521 31.3351 12.5836 31.8961 12.5827C32.3965 12.5827 32.7768 12.4993 33.0371 12.3326C33.2974 12.1659 33.4273 11.9443 33.4269 11.6675C33.4292 11.4161 33.3145 11.1779 33.1166 11.0227C32.9093 10.8484 32.5694 10.6772 32.0968 10.509C31.5897 10.3262 31.2336 10.1683 31.0281 10.0353C30.842 9.92225 30.6833 9.76922 30.5637 9.5873C30.4544 9.4034 30.3999 9.19197 30.4069 8.97814C30.3984 8.61494 30.5798 8.27357 30.8856 8.07728C31.204 7.85796 31.6497 7.7483 32.2229 7.7483C32.7578 7.74583 33.2879 7.85061 33.7817 8.05644L33.6101 8.47425C33.1122 8.2688 32.6502 8.1661 32.224 8.1661C31.8098 8.1661 31.4808 8.23464 31.237 8.37172C30.9932 8.50879 30.8719 8.6985 30.8729 8.94085C30.8635 9.18605 30.969 9.42165 31.1581 9.57797C31.346 9.7366 31.7139 9.91392 32.2618 10.1098C32.7191 10.2747 33.0519 10.4233 33.2602 10.5556C33.4488 10.6684 33.6093 10.8224 33.7296 11.0063C33.8357 11.1847 33.8893 11.3893 33.8842 11.5968Z" stroke="#444444" stroke-width="0.3" stroke-linejoin="round"/>
<path d="M36.5319 12.6002C36.7898 12.604 37.0473 12.5788 37.2996 12.5251V12.8985C37.049 12.9774 36.7875 13.0153 36.5248 13.0109C36.077 13.0109 35.7464 12.891 35.5329 12.6512C35.3195 12.4114 35.2129 12.0349 35.2133 11.5217V8.24561H34.4599V7.97475L35.2111 7.76475L35.4447 6.61716H35.6826V7.84425H37.174V8.24561H35.6826V11.4564C35.6826 11.8457 35.7512 12.1336 35.8882 12.32C36.0253 12.5064 36.2399 12.5998 36.5319 12.6002Z" stroke="#444444" stroke-width="0.3" stroke-linejoin="round"/>
<path d="M38.3293 6.43457C38.3293 6.13559 38.4273 5.98623 38.6232 5.98661C38.7138 5.98365 38.7995 6.02785 38.8496 6.1034C38.9094 6.20232 38.9379 6.31702 38.9313 6.43238C38.937 6.54769 38.9086 6.66212 38.8496 6.76136C38.8009 6.83906 38.7148 6.88528 38.6232 6.88308C38.4269 6.88308 38.3289 6.73214 38.3293 6.43019V6.43457ZM38.8562 12.9171H38.3945V7.84425H38.8562V12.9171Z" stroke="#444444" stroke-width="0.3" stroke-linejoin="round"/>
<path d="M44.093 12.9171V9.62732C44.093 9.11559 43.9857 8.74456 43.7711 8.51427C43.5566 8.28399 43.2236 8.16791 42.7721 8.1661C42.1657 8.1661 41.7216 8.31924 41.4398 8.62558C41.1579 8.93191 41.017 9.429 41.017 10.117V12.9171H40.5554V7.84425H40.9474L41.0357 8.5395H41.0669C41.3959 8.01022 41.9808 7.74572 42.8215 7.74611C43.9725 7.74611 44.5481 8.36366 44.5481 9.59881V12.9171H44.093Z" stroke="#444444" stroke-width="0.3" stroke-linejoin="round"/>
<path d="M50.1511 7.84425V8.1661L49.1012 8.23135C49.3709 8.55326 49.5195 8.95949 49.5212 9.37949C49.5212 9.86819 49.3585 10.2643 49.0332 10.5677C48.7079 10.871 48.2714 11.0226 47.7238 11.0222C47.5616 11.0266 47.3992 11.0173 47.2386 10.9942C47.0746 11.0747 46.9309 11.1912 46.8186 11.3353C46.7264 11.4542 46.6756 11.5999 46.6738 11.7503C46.664 11.8938 46.7351 12.0307 46.8581 12.1051C46.9809 12.1782 47.187 12.2147 47.4765 12.2147H48.3637C48.9142 12.2147 49.3357 12.3259 49.6281 12.5481C49.9205 12.7703 50.0667 13.0993 50.0667 13.5351C50.0667 14.0702 49.8498 14.4832 49.4159 14.7742C48.982 15.0652 48.3635 15.2114 47.5604 15.2128C46.9226 15.2128 46.4291 15.09 46.08 14.8444C45.7309 14.5988 45.5559 14.2564 45.5548 13.8174C45.5444 13.4967 45.6611 13.1847 45.8794 12.9495C46.0954 12.7192 46.3878 12.562 46.7566 12.4779C46.6125 12.4188 46.4863 12.3232 46.3904 12.2005C46.2992 12.0821 46.2508 11.9364 46.2527 11.7871C46.2527 11.4482 46.4689 11.1496 46.9014 10.8912C46.6163 10.7785 46.3744 10.5783 46.2105 10.3193C46.0432 10.0517 45.9573 9.74115 45.9632 9.42555C45.9632 8.91854 46.1243 8.5117 46.4463 8.20503C46.7683 7.89837 47.2031 7.74517 47.7507 7.74556C48.0837 7.74556 48.3419 7.77829 48.5254 7.8437L50.1511 7.84425ZM46.0438 13.7763C46.0438 14.473 46.562 14.8214 47.5983 14.8214C48.9295 14.8214 49.5953 14.3968 49.5957 13.5477C49.5957 13.2424 49.4915 13.0215 49.2832 12.8848C49.0748 12.7481 48.7371 12.6795 48.2699 12.6792H47.4393C46.5086 12.6792 46.0435 13.0447 46.0438 13.7758V13.7763ZM46.4315 9.4261C46.4315 9.81797 46.5505 10.1221 46.7884 10.3385C47.0264 10.5549 47.3446 10.6631 47.743 10.6631C48.1659 10.6631 48.4902 10.5558 48.7157 10.3412C48.9412 10.1267 49.0542 9.81594 49.0546 9.4091C49.0546 8.97704 48.9385 8.65261 48.7064 8.43587C48.4743 8.21912 48.15 8.11111 47.7337 8.11182C47.3291 8.11182 47.0109 8.22768 46.7791 8.45944C46.5473 8.69121 46.4315 9.01394 46.4315 9.42774V9.4261Z" stroke="#444444" stroke-width="0.3" stroke-linejoin="round"/>
<path d="M51.1008 12.553C51.1008 12.2482 51.2253 12.0958 51.4742 12.0958C51.7301 12.0958 51.858 12.2482 51.858 12.553C51.858 12.8579 51.7301 13.0105 51.4742 13.0109C51.2253 13.0109 51.1008 12.8583 51.1008 12.553Z" stroke="#444444" stroke-width="0.3" stroke-linejoin="round"/>
<path d="M55.3227 7.74611C55.6515 7.73777 55.9776 7.80653 56.2751 7.94678C56.5427 8.08057 56.7823 8.30921 56.9939 8.63271H57.0224C57.0038 8.24051 56.9945 7.8567 56.9945 7.48128V5.65544H57.4518V12.9171H57.1485L57.0318 12.1424H56.9945C56.6085 12.7214 56.0545 13.0109 55.3326 13.0109C54.6329 13.0109 54.0978 12.793 53.7272 12.3573C53.3565 11.9216 53.171 11.2876 53.1706 10.4553C53.1706 9.57797 53.3534 8.9074 53.7189 8.44354C54.0845 7.97968 54.6191 7.7472 55.3227 7.74611ZM55.3227 8.1661C54.7689 8.1661 54.3528 8.36059 54.0742 8.74949C53.7957 9.1384 53.6564 9.70315 53.6564 10.4437C53.6564 11.8814 54.215 12.6002 55.332 12.6002C55.9045 12.6002 56.3248 12.4337 56.5931 12.1007C56.8614 11.7677 56.9952 11.2194 56.9945 10.4558V10.3763C56.9945 9.59223 56.8629 9.02841 56.5997 8.6848C56.3365 8.34118 55.9109 8.1683 55.3227 8.1661Z" stroke="#444444" stroke-width="0.3" stroke-linejoin="round"/>
<path d="M61.2032 13.0109C60.4656 13.0109 59.8906 12.7837 59.4783 12.3293C59.0659 11.875 58.86 11.2386 58.8603 10.4202C58.8603 9.61159 59.0594 8.96372 59.4574 8.47644C59.8555 7.98917 60.3923 7.74572 61.0678 7.74611C61.6654 7.74611 62.1368 7.95462 62.4819 8.37172C62.8269 8.78881 62.9996 9.35537 63 10.0714V10.4448H59.3456C59.3518 11.1416 59.5145 11.6736 59.8336 12.0409C60.1527 12.4083 60.6096 12.591 61.2043 12.5892C61.46 12.5922 61.7155 12.572 61.9675 12.5289C62.2527 12.468 62.5316 12.3804 62.8004 12.2674V12.6874C62.5464 12.8018 62.2802 12.8871 62.007 12.9418C61.7418 12.9894 61.4727 13.0126 61.2032 13.0109ZM61.0678 8.15678C60.5791 8.15678 60.1871 8.31782 59.8917 8.63983C59.5963 8.96185 59.4236 9.42626 59.3735 10.0331H62.5098C62.5098 9.44457 62.3819 8.98488 62.126 8.65409C61.8701 8.3233 61.517 8.1575 61.0667 8.15678H61.0678Z" stroke="#444444" stroke-width="0.3" stroke-linejoin="round"/>
<rect width="32" height="20" transform="translate(70)" fill="url(#paint1_linear)"/>
<g filter="url(#filter0_d)">
<path d="M83.207 14L82.4229 11.8193H79.4204L78.6523 14H77.2988L80.2368 6.11523H81.6333L84.5713 14H83.207ZM82.0845 10.7129L81.3486 8.5752C81.2949 8.43197 81.2197 8.20638 81.123 7.89844C81.0299 7.59049 80.9655 7.36491 80.9297 7.22168C80.833 7.66211 80.6916 8.14372 80.5054 8.6665L79.7964 10.7129H82.0845ZM90.8071 8.52148C90.8071 9.34147 90.5386 9.96989 90.0015 10.4067C89.4644 10.8436 88.6999 11.062 87.708 11.062H86.8916V14H85.6079V6.14746H87.8691C88.8503 6.14746 89.5843 6.34798 90.0713 6.74902C90.5618 7.15007 90.8071 7.74089 90.8071 8.52148ZM86.8916 9.98242H87.5737C88.2326 9.98242 88.716 9.86784 89.0239 9.63867C89.3319 9.40951 89.4858 9.05143 89.4858 8.56445C89.4858 8.11328 89.348 7.77669 89.0723 7.55469C88.7965 7.33268 88.3669 7.22168 87.7832 7.22168H86.8916V9.98242ZM92.3755 14V6.14746H93.6592V14H92.3755Z" fill="white"/>
</g>
</g>
<defs>
<filter id="filter0_d" x="77.2988" y="6.11523" width="16.3604" height="8.88477" filterUnits="userSpaceOnUse" color-interpolation-filters="sRGB">
<feFlood flood-opacity="0" result="BackgroundImageFix"/>
<feColorMatrix in="SourceAlpha" type="matrix" values="0 0 0 0 0 0 0 0 0 0 0 0 0 0 0 0 0 0 127 0"/>
<feOffset dy="1"/>
<feColorMatrix type="matrix" values="0 0 0 0 0 0 0 0 0 0 0 0 0 0 0 0 0 0 0.25 0"/>
<feBlend mode="normal" in2="BackgroundImageFix" result="effect1_dropShadow"/>
<feBlend mode="normal" in="SourceGraphic" in2="effect1_dropShadow" result="shape"/>
</filter>
<linearGradient id="paint0_linear" x1="35" y1="0" x2="35" y2="19.9789" gradientUnits="userSpaceOnUse">
<stop stop-color="#F7F7F7"/>
<stop offset="1" stop-color="#E6E6E6"/>
</linearGradient>
<linearGradient id="paint1_linear" x1="16" y1="0" x2="16" y2="20" gradientUnits="userSpaceOnUse">
<stop stop-color="#3D647B"/>
<stop offset="1" stop-color="#1B4964"/>
</linearGradient>
</defs>
</svg>
