<svg width="1000" height="701" viewBox="0 0 1000 701" fill="none" xmlns="http://www.w3.org/2000/svg">
<path d="M258.2 500.611C262.2 500.611 265.5 502.011 268.3 504.811C271.1 507.611 272.5 511.011 272.5 514.911V564.511H221.8C217.8 564.511 214.5 563.111 211.7 560.311C208.9 557.511 207.5 554.111 207.5 550.211V526.611H260.6V514.911C260.6 514.211 260.4 513.711 259.9 513.211C259.4 512.711 258.9 512.511 258.2 512.511H207.5V500.611H258.2V500.611ZM260.6 552.611V538.511H219.4V550.211C219.4 550.911 219.6 551.411 220.1 551.911C220.6 552.411 221.1 552.611 221.8 552.611H260.6V552.611ZM375.3 500.611H388L364 564.511H354.3L332.8 517.011L312.5 564.511L312.3 564.411L312.4 564.511H302.8L277.7 500.611H290.3L307.6 543.011L326 500.611H339.6L359.1 543.011L375.3 500.611V500.611ZM442.5 500.611C446.5 500.611 449.8 502.011 452.6 504.811C455.4 507.611 456.8 511.011 456.8 514.911V538.511H403.7V550.211C403.7 550.911 403.9 551.411 404.4 551.911C404.9 552.411 405.4 552.611 406.1 552.611H456.8V564.511H406.1C402.1 564.511 398.8 563.111 396 560.311C393.2 557.511 391.8 554.111 391.8 550.211V514.911C391.8 510.911 393.2 507.611 396 504.811C398.8 502.011 402.2 500.611 406.1 500.611H442.5V500.611ZM403.7 526.611H444.9V514.911C444.9 514.211 444.7 513.711 444.2 513.211C443.7 512.711 443.2 512.511 442.5 512.511H406.1C405.4 512.511 404.9 512.711 404.4 513.211C403.9 513.711 403.7 514.211 403.7 514.911V526.611V526.611ZM532.7 515.011V517.411H520.8V515.011C520.8 514.311 520.6 513.811 520.1 513.311C519.6 512.811 519.1 512.611 518.4 512.611H482C481.3 512.611 480.8 512.811 480.3 513.311C479.8 513.811 479.6 514.311 479.6 515.011V524.311C479.6 525.011 479.8 525.511 480.3 526.011C480.8 526.511 481.3 526.711 482 526.711H518.4C522.4 526.711 525.7 528.111 528.5 530.911C531.3 533.711 532.7 537.111 532.7 541.011V550.311C532.7 554.311 531.3 557.611 528.5 560.411C525.7 563.211 522.3 564.611 518.4 564.611H482C478 564.611 474.7 563.211 471.9 560.411C469.1 557.611 467.7 554.211 467.7 550.311V547.911H479.6V550.311C479.6 551.011 479.8 551.511 480.3 552.011C480.8 552.511 481.3 552.711 482 552.711H518.4C519.1 552.711 519.6 552.511 520.1 552.011C520.6 551.511 520.8 551.011 520.8 550.311V541.011C520.8 540.311 520.6 539.811 520.1 539.311C519.6 538.811 519.1 538.611 518.4 538.611H482C478 538.611 474.7 537.211 471.9 534.411C469.1 531.611 467.7 528.211 467.7 524.311V515.011C467.7 511.011 469.1 507.711 471.9 504.911C474.7 502.111 478.1 500.711 482 500.711H518.4C522.4 500.711 525.7 502.111 528.5 504.911C531.3 507.611 532.7 511.011 532.7 515.011V515.011ZM557.9 500.611H594.3C598.3 500.611 601.6 502.011 604.4 504.811C607.2 507.611 608.6 511.011 608.6 514.911V550.211C608.6 554.211 607.2 557.511 604.4 560.311C601.6 563.111 598.2 564.511 594.3 564.511H557.9C553.9 564.511 550.6 563.111 547.8 560.311C545 557.511 543.6 554.111 543.6 550.211V514.911C543.6 510.911 545 507.611 547.8 504.811C550.6 502.011 554 500.611 557.9 500.611V500.611ZM594.3 512.511H557.9C557.2 512.511 556.7 512.711 556.2 513.211C555.7 513.711 555.5 514.211 555.5 514.911V550.211C555.5 550.911 555.7 551.411 556.2 551.911C556.7 552.411 557.2 552.611 557.9 552.611H594.3C595 552.611 595.5 552.411 596 551.911C596.5 551.411 596.7 550.911 596.7 550.211V514.911C596.7 514.211 596.5 513.711 596 513.211C595.5 512.811 595 512.511 594.3 512.511V512.511ZM701.8 500.611C705.8 500.611 709.1 502.011 711.9 504.811C714.7 507.611 716.1 511.011 716.1 514.911V564.511H704.3V514.911C704.3 514.211 704.1 513.711 703.6 513.211C703.1 512.711 702.5 512.511 701.8 512.511H676.6C675.9 512.511 675.4 512.711 674.9 513.211C674.4 513.711 674.2 514.211 674.2 514.911V564.511H662.3V514.911C662.3 514.211 662.1 513.711 661.6 513.211C661.1 512.711 660.6 512.511 659.9 512.511H634.6C633.9 512.511 633.4 512.711 632.9 513.211C632.4 513.711 632.2 514.211 632.2 514.911V564.511H620.3V500.611H701.8V500.611ZM778.3 500.611C782.3 500.611 785.6 502.011 788.4 504.811C791.2 507.611 792.6 511.011 792.6 514.911V538.511H739.5V550.211C739.5 550.911 739.7 551.411 740.2 551.911C740.7 552.411 741.2 552.611 741.9 552.611H792.6V564.511H741.9C737.9 564.511 734.6 563.111 731.8 560.311C729 557.511 727.6 554.111 727.6 550.211V514.911C727.6 510.911 729 507.611 731.8 504.811C734.6 502.011 738 500.611 741.9 500.611H778.3V500.611ZM739.5 526.611H780.7V514.911C780.7 514.211 780.5 513.711 780 513.211C779.5 512.711 779 512.511 778.3 512.511H741.9C741.2 512.511 740.7 512.711 740.2 513.211C739.7 513.711 739.5 514.211 739.5 514.911V526.611V526.611Z" fill="#494368"/>
<path d="M792.5 268.511L642.5 130.911L621.4 153.911L746.4 268.511H253.7L378.7 153.811L357.6 130.811L207.6 268.511H207.5V359.211C207.5 400.211 247 433.611 295.5 433.611H388C436.5 433.611 476 400.211 476 359.211V299.611H524V359.211C524 400.211 563.5 433.611 612 433.611H704.5C753 433.611 792.5 400.211 792.5 359.211V268.511V268.511Z" fill="#FC60A8"/>
<path d="M525.713 444.193C455.83 453.128 384.266 414.76 345.246 357.723C322.709 324.632 312.008 285.801 312.197 245.856C312.365 208.266 321.847 153.605 350.208 125.896C393.369 83.7014 399.845 182.533 402.767 206.29C407.63 244.664 412.537 283.032 417.483 321.394C425.199 381.269 454.085 454.032 525.713 444.193Z" fill="#FBB03B"/>
<path d="M673.34 472.911C613.045 493.766 541.186 463.093 510.323 408.39C490.456 372.328 486.186 329.713 498.508 290.426C510.618 253.509 532.146 268.015 542.658 295.346C564.48 351.374 587.228 504.699 673.34 472.911Z" fill="#1B4964"/>
<path d="M474.395 53.6587C544.13 44.7447 615.694 82.4399 654.798 139.435C677.461 172.484 687.931 211.209 687.805 251.112C687.679 286.852 677.966 350.449 647.082 374.268C603.626 407.78 599.632 310.083 596.752 287.525C591.853 249.136 587.06 210.747 582.035 172.379C574.257 112.756 544.634 44.0089 474.395 53.6587Z" fill="#E6302B"/>
<path d="M323.655 27.7155C382.71 7.30163 452.929 36.3352 484.591 88.9782C504.443 122.868 510.319 163.16 500.968 201.307C491.802 237.846 469.874 242.955 455.347 208.098C431.843 151.818 411.723 -3.90394 323.655 27.7155Z" fill="#8CC63F"/>
<path opacity="0.9" d="M207.5 268.511H207.6H792.5V359.211C792.5 400.211 753 433.611 704.5 433.611H612C563.5 433.611 524 400.211 524 359.211V299.611H476V359.211C476 400.211 436.5 433.611 388 433.611H295.5C247 433.611 207.5 400.211 207.5 359.211V268.511Z" fill="#FC60A8"/>
</svg>
